<?xml version="1.0" standalone="no"?>
<!DOCTYPE svg PUBLIC "-//W3C//DTD SVG 20010904//EN"
 "http://www.w3.org/TR/2001/REC-SVG-20010904/DTD/svg10.dtd">
<svg version="1.0" xmlns="http://www.w3.org/2000/svg"
 width="1200.000000pt" height="1200.000000pt" viewBox="0 0 1200.000000 1200.000000"
 preserveAspectRatio="xMidYMid meet">
<metadata>
Created by potrace 1.11, written by Peter Selinger 2001-2013
</metadata>
<g transform="translate(0.000000,1200.000000) scale(0.100000,-0.100000)"
fill="#000000" stroke="none">
<path d="M0 6000 l0 -6000 6000 0 6000 0 0 6000 0 6000 -6000 0 -6000 0 0
-6000z m6262 4290 c350 -22 822 -134 1143 -270 603 -255 1034 -558 1482 -1041
88 -96 194 -205 234 -244 41 -38 647 -638 1348 -1334 1213 -1206 1272 -1266
1246 -1273 -30 -8 -1013 -28 -1371 -28 l-221 0 -8 -112 c-13 -209 -57 -542
-91 -698 -135 -605 -393 -1142 -793 -1645 -120 -150 -441 -474 -584 -587 -647
-514 -1345 -797 -2157 -874 -224 -22 -651 -14 -866 15 -651 88 -1259 325
-1784 695 -190 134 -332 256 -540 468 -118 120 -465 466 -770 769 -305 304
-930 928 -1388 1388 l-834 836 274 6 c150 4 510 7 800 8 289 0 533 4 542 7 12
5 16 20 16 63 0 69 25 329 46 471 241 1671 1530 3012 3200 3330 248 47 368 58
649 59 149 0 341 -4 427 -9z"/>
<path d="M5775 8434 c-429 -32 -812 -178 -1142 -432 -487 -378 -792 -957 -815
-1552 l-3 -75 983 -3 984 -2 -393 -403 c-217 -221 -530 -539 -696 -707 l-302
-305 72 -95 c280 -371 702 -648 1166 -765 185 -46 305 -58 551 -52 239 5 321
16 516 67 747 197 1359 848 1500 1595 24 128 51 381 41 391 -3 3 -366 7 -808
10 -442 2 -882 7 -977 10 l-172 6 690 694 c379 382 690 700 690 705 0 18 -125
173 -218 270 -313 329 -763 562 -1208 624 -104 15 -370 26 -459 19z"/>
</g>
</svg>
