<?xml version="1.0" encoding="UTF-8" standalone="no"?>
<svg
   xmlns:dc="http://purl.org/dc/elements/1.1/"
   xmlns:cc="http://creativecommons.org/ns#"
   xmlns:rdf="http://www.w3.org/1999/02/22-rdf-syntax-ns#"
   xmlns:svg="http://www.w3.org/2000/svg"
   xmlns="http://www.w3.org/2000/svg"
   xmlns:sodipodi="http://sodipodi.sourceforge.net/DTD/sodipodi-0.dtd"
   xmlns:inkscape="http://www.inkscape.org/namespaces/inkscape"
   version="1.0"
   width="1200"
   height="1200"
   viewBox="0 0 899.99997 900.00002"
   preserveAspectRatio="xMidYMid meet"
   id="svg16"
   sodipodi:docname="flowloop-logo4-no-bg.svg"
   inkscape:version="1.0beta1 (32d4812, 2019-09-19)"
   inkscape:export-filename="/Users/blizzfire/Downloads/drive-download-20200916T093400Z-001/flowloop-logo4.png"
   inkscape:export-xdpi="49.963799"
   inkscape:export-ydpi="49.963799">
  <defs
     id="defs20" />
  <sodipodi:namedview
     inkscape:pagecheckerboard="false"
     pagecolor="#000000"
     bordercolor="#666666"
     inkscape:document-rotation="0"
     borderopacity="1"
     objecttolerance="10"
     gridtolerance="10"
     guidetolerance="10"
     inkscape:pageopacity="0"
     inkscape:pageshadow="2"
     inkscape:window-width="1600"
     inkscape:window-height="1209"
     id="namedview18"
     showgrid="false"
     inkscape:zoom="0.35"
     inkscape:cx="400"
     inkscape:cy="560"
     inkscape:window-x="0"
     inkscape:window-y="23"
     inkscape:window-maximized="0"
     inkscape:current-layer="svg16"
     units="mm"
     width="1200mm" />
  <metadata
     id="metadata10">
Created by potrace 1.15, written by Peter Selinger 2001-2017
<rdf:RDF>
  <cc:Work
     rdf:about="">
    <dc:format>image/svg+xml</dc:format>
    <dc:type
       rdf:resource="http://purl.org/dc/dcmitype/StillImage" />
    <dc:title></dc:title>
  </cc:Work>
</rdf:RDF>
</metadata>
  <g
     transform="matrix(0.1,0,0,-0.1,-184.16784,895.11277)"
     fill="#000000"
     stroke="none"
     id="g14">
    <path
       style="fill:#ee1d52;fill-opacity:1;stroke-width:0.999997"
       id="path12-3"
       d="m 5985.9287,7321.7444 c -416,-44 -749,-140 -1095,-315 -762,-385 -1327,-1087 -1540,-1914.9999 -52.9999,-203 -87,-445 -90.9999,-631 l -2.0001,-83 h -316.9999 c -174,0 -451,-3 -616,-6 l -299,-6 960,-957 c 528,-526 995.9999,-989.9999 1039.9999,-1030.9999 44.0001,-41 118,-118 164.0001,-170 516.9999,-581 1264.9999,-938 2051.9999,-979 1000.9999,-51 1942.9999,387 2544.9999,1185 212,281 376,604.9999 474,935.9999 72,243 102,420 125,741 l 7,87 526.0004,1 c 289.999,1 565,4 612,8 l 86,6 -961.0005,955 c -527.9999,525 -993.9999,986.9999 -1034.9999,1024.9999 -41,39 -113,113 -159,165 -168,191 -405,392 -633,536 -139,88 -413.9999,222 -572.9999,280 -164,59 -389,116 -570,144 -113,18 -190,23 -400,25 -143,2 -278,1 -300,-1 z m 521,-1414 c 402,-69 759.9999,-287.9999 1004,-612.9999 l 42.9999,-58 -525.9999,-527 -527,-527 741.9999,-3 741,-2 -6,-103 c -23,-399 -236,-814 -556,-1079 -296.9999,-246 -635,-368.9999 -1016.9999,-369.9999 -158,0 -251,11 -398,48 -344,85.9999 -679,311.9999 -885,598.9999 l -29,41 525,532 525,532 h -743 -742 l 6,99 c 3,55 18,153 32,218 139,621 643,1102 1271,1211.9999 154,27 384,28 540,1 z"
       inkscape:connector-curvature="0" />
    <path
       inkscape:connector-curvature="0"
       d="m 6026.4286,7675.4285 c -416,-44 -749,-140 -1095,-315 -762,-385 -1327,-1087 -1540,-1915 -53,-203 -87,-445 -91,-631 l -2,-83 h -317 c -174,0 -451,-3 -616,-6 l -299,-6 960,-957 c 528,-526 996,-990 1040,-1031 44,-41 118,-118 164,-170 517,-581 1265,-938 2052,-979 1001,-51 1943,387 2545,1185 212,281 376,605 474,936 72,243 102,420 125,741 l 7,87 526.0004,1 c 290,1 564.999,4 611.999,8 l 86,6 -960.9994,955 c -528,525 -994,987 -1035,1025 -41,39 -113,113 -159,165 -168,191 -405,392 -633,536 -139,88 -414,222 -573,280 -164,59 -389,116 -570,144 -113,18 -190,23 -400,25 -143,2 -278,1 -300,-1 z m 521,-1414 c 402,-69 760,-288 1004,-613 l 43,-58 -526,-527 -527,-527 742,-3 741,-2 -6,-103 c -23,-399 -236,-814 -556,-1079 -297,-246 -635,-369 -1017,-370 -158,0 -251,11 -398,48 -344,86 -679,312 -885,599 l -29,41 525,532 525,532 h -743 -742 l 6,99 c 3,55 18,153 32,218 139,621 643,1102 1271,1212 154,27 384,28 540,1 z"
       id="path12"
       style="opacity:1;fill:#69c9d0;fill-opacity:1" />
    <path
       transform="matrix(7.5,0,0,-7.5,0,9160)"
       d="m 812.07422,244.83398 c -7.25,0.0333 -12.48451,0.13425 -13.95117,0.26758 -55.46667,5.86667 -99.86667,18.66667 -146,42 -101.6,51.33334 -176.93203,144.93205 -205.33203,255.33203 -2.5051,9.59502 -4.68523,19.84592 -6.48829,30.1836 -0.10943,2.31133 -0.19873,4.59054 -0.24609,6.79297 l -0.26562,11.0664 h -2.2168 c -1.66602,12.75814 -2.68272,25.15219 -2.91797,36.0918 l -0.26563,11.06641 h -42.26757 c -19.55367,0 -48.37946,0.28643 -70.28125,0.61523 l 81.68164,81.42578 c 70.4,70.13333 132.8013,132.00013 138.66797,137.4668 5.86666,5.46666 15.7319,15.73268 21.86523,22.66601 68.93333,77.46667 168.66628,125.06851 273.59961,130.53521 133.46667,6.8 259.06735,-51.60005 339.33395,-158.00005 28.2667,-37.46667 50.1345,-80.66745 63.2012,-124.80078 4.824,-16.28107 8.2323,-30.34269 10.8203,-45.73242 0.1498,-1.94216 0.3002,-3.885 0.4453,-5.91016 l 0.9336,-11.59961 1.1504,-0.002 c 1.2945,-10.53443 2.3518,-22.09449 3.3164,-35.55664 l 0.9336,-11.59961 70.1328,-0.13281 c 14.9868,-0.0517 29.0803,-0.15331 41.8125,-0.27735 L 1287.457,534.9668 c -70.4,-70 -132.5333,-131.59935 -138,-136.66602 -5.4666,-5.2 -15.0659,-15.06667 -21.1992,-22 -22.4,-25.46667 -54.0004,-52.2668 -84.4004,-71.4668 -18.5333,-11.73333 -55.20037,-29.60065 -76.40037,-37.33398 -21.86667,-7.86667 -51.86667,-15.46589 -76,-19.19922 -15.06667,-2.4 -25.33398,-3.06732 -53.33398,-3.33398 -9.53334,-0.13334 -18.79883,-0.16615 -26.04883,-0.13282 z m 24.8164,139.00977 c 12.83334,-0.0333 25.69961,0.83281 36.09961,2.63281 53.6,9.2 101.33386,38.39909 133.86717,81.73242 l 5.7324,7.73438 -23.92183,23.9668 c 4.48431,4.92801 8.75448,10.0831 12.78903,15.45703 l 5.7344,7.73437 -70.13476,70.26563 -23.27734,23.27734 57.34375,0.23242 98.80075,0.26563 -0.8008,13.73437 c -0.6407,11.11544 -2.4007,22.32206 -5.1523,33.42188 l 0.5527,0.002 -0.7988,13.73242 c -3.0667,53.2 -31.4681,108.53386 -74.13476,143.86719 -39.59998,32.8 -84.66629,49.20065 -135.59961,49.33399 -21.06666,0 -33.4664,-1.46706 -53.0664,-6.4004 -45.86667,-11.46665 -90.53334,-41.60052 -118,-79.86718 l -3.86719,-5.4668 23.69531,-24.00977 c -5.2037,-5.65784 -10.03754,-11.5652 -14.42773,-17.68164 l -3.86719,-5.46484 70,-70.93359 23.46289,-23.77539 h -57.92969 -98.93359 l 0.80078,-13.20118 c 0.4,-7.33333 2.39896,-20.39974 4.26563,-29.0664 0.36676,-1.63858 0.75942,-3.26691 1.16406,-4.89063 h -0.83008 l 0.80078,-13.20117 c 0.4,-7.33333 2.39896,-20.39974 4.26563,-29.06641 18.53333,-82.8 85.73346,-146.93294 169.46679,-161.5996 10.26667,-1.80001 23.06706,-2.7323 35.90039,-2.76563 z"
       style="opacity:1;fill:#ffffff;fill-opacity:1;stroke-width:0.133333"
       id="path18"
       inkscape:connector-curvature="0" />
  </g>
</svg>
